name rise49.5252peak65.1548fall88.8305.mot
datacolumns 19
datarows 18
range 3.55331700000000 3.58164800000000
endheader
time	ground_force1_vx	ground_force1_vy	ground_force1_vz	ground_force1_px	ground_force1_py	ground_force1_pz	ground_force2_vx	ground_force2_vy	ground_force2_vz	ground_force2_px	ground_force2_py	ground_force2_pz	ground_torque1_x	ground_torque1_y	ground_torque1_z	ground_torque2_x	ground_torque2_y	ground_torque2_z	
3.55331700000000	5.73905300000000	682.79603499999996	42.99707800000000	0.24177800000000	0.00000000000000	0.12892700000000	0.00000000000000	0.00000000000000	0.00000000000000	0.00000000000000	0.00000000000000	0.00000000000000	0.00000000000000	20.42376200000000	0.00000000000000	0.00000000000000	0.00000000000000	0.00000000000000	
3.55498400000000	5.53006400000000	683.12501199999997	42.95676800000000	0.24138000000000	0.00000000000000	0.12884200000000	0.00000000000000	0.00000000000000	0.00000000000000	0.00000000000000	0.00000000000000	0.00000000000000	0.00000000000000	20.45841300000000	0.00000000000000	0.00000000000000	0.00000000000000	0.00000000000000	
3.55664400000000	5.31466700000000	683.53565300000002	42.92086200000000	0.24100800000000	0.00000000000000	0.12875600000000	0.00000000000000	0.00000000000000	0.00000000000000	0.00000000000000	0.00000000000000	0.00000000000000	0.00000000000000	20.49900000000000	0.00000000000000	0.00000000000000	0.00000000000000	0.00000000000000	
3.55831700000000	5.09230500000000	684.02672199999995	42.88912700000000	0.24065900000000	0.00000000000000	0.12867000000000	0.00000000000000	0.00000000000000	0.00000000000000	0.00000000000000	0.00000000000000	0.00000000000000	0.00000000000000	20.54532800000000	0.00000000000000	0.00000000000000	0.00000000000000	0.00000000000000	
3.55998300000000	4.86243900000000	684.59692399999994	42.86134100000000	0.24033100000000	0.00000000000000	0.12858200000000	0.00000000000000	0.00000000000000	0.00000000000000	0.00000000000000	0.00000000000000	0.00000000000000	0.00000000000000	20.59719500000000	0.00000000000000	0.00000000000000	0.00000000000000	0.00000000000000	
3.56164900000000	4.62455100000000	685.24490700000001	42.83729200000000	0.24001800000000	0.00000000000000	0.12849300000000	0.00000000000000	0.00000000000000	0.00000000000000	0.00000000000000	0.00000000000000	0.00000000000000	0.00000000000000	20.65439800000000	0.00000000000000	0.00000000000000	0.00000000000000	0.00000000000000	
3.56331300000000	4.37814700000000	685.96926699999995	42.81678500000000	0.23971900000000	0.00000000000000	0.12840400000000	0.00000000000000	0.00000000000000	0.00000000000000	0.00000000000000	0.00000000000000	0.00000000000000	0.00000000000000	20.71673000000000	0.00000000000000	0.00000000000000	0.00000000000000	0.00000000000000	
3.56497900000000	4.12276000000000	686.76854800000001	42.79963700000000	0.23943000000000	0.00000000000000	0.12831500000000	0.00000000000000	0.00000000000000	0.00000000000000	0.00000000000000	0.00000000000000	0.00000000000000	0.00000000000000	20.78398200000000	0.00000000000000	0.00000000000000	0.00000000000000	0.00000000000000	
3.56665300000000	3.85795100000000	687.64125100000001	42.78567700000000	0.23914700000000	0.00000000000000	0.12822500000000	0.00000000000000	0.00000000000000	0.00000000000000	0.00000000000000	0.00000000000000	0.00000000000000	0.00000000000000	20.85594400000000	0.00000000000000	0.00000000000000	0.00000000000000	0.00000000000000	
3.56831700000000	3.58331400000000	688.58582999999999	42.77475200000000	0.23886600000000	0.00000000000000	0.12813500000000	0.00000000000000	0.00000000000000	0.00000000000000	0.00000000000000	0.00000000000000	0.00000000000000	0.00000000000000	20.93240400000000	0.00000000000000	0.00000000000000	0.00000000000000	0.00000000000000	
3.56998000000000	3.29847500000000	689.60069999999996	42.76672500000000	0.23858600000000	0.00000000000000	0.12804500000000	0.00000000000000	0.00000000000000	0.00000000000000	0.00000000000000	0.00000000000000	0.00000000000000	0.00000000000000	21.01315200000000	0.00000000000000	0.00000000000000	0.00000000000000	0.00000000000000	
3.57164700000000	3.00309900000000	690.68423600000006	42.76147300000000	0.23830100000000	0.00000000000000	0.12795500000000	0.00000000000000	0.00000000000000	0.00000000000000	0.00000000000000	0.00000000000000	0.00000000000000	0.00000000000000	21.09797600000000	0.00000000000000	0.00000000000000	0.00000000000000	0.00000000000000	
3.57331700000000	2.69688800000000	691.83477700000003	42.75889100000000	0.23801000000000	0.00000000000000	0.12786600000000	0.00000000000000	0.00000000000000	0.00000000000000	0.00000000000000	0.00000000000000	0.00000000000000	0.00000000000000	21.18666700000000	0.00000000000000	0.00000000000000	0.00000000000000	0.00000000000000	
3.57498100000000	2.37958500000000	693.05062599999997	42.75888900000000	0.23770800000000	0.00000000000000	0.12777700000000	0.00000000000000	0.00000000000000	0.00000000000000	0.00000000000000	0.00000000000000	0.00000000000000	0.00000000000000	21.27901700000000	0.00000000000000	0.00000000000000	0.00000000000000	0.00000000000000	
3.57664600000000	2.05097600000000	694.33005400000002	42.76139500000000	0.23739300000000	0.00000000000000	0.12768900000000	0.00000000000000	0.00000000000000	0.00000000000000	0.00000000000000	0.00000000000000	0.00000000000000	0.00000000000000	21.37481900000000	0.00000000000000	0.00000000000000	0.00000000000000	0.00000000000000	
3.57831600000000	1.71088900000000	695.67129999999997	42.76635400000000	0.23706300000000	0.00000000000000	0.12760200000000	0.00000000000000	0.00000000000000	0.00000000000000	0.00000000000000	0.00000000000000	0.00000000000000	0.00000000000000	21.47387000000000	0.00000000000000	0.00000000000000	0.00000000000000	0.00000000000000	
3.57998100000000	1.35920000000000	697.07257200000004	42.77372600000000	0.23671400000000	0.00000000000000	0.12751600000000	0.00000000000000	0.00000000000000	0.00000000000000	0.00000000000000	0.00000000000000	0.00000000000000	0.00000000000000	21.57597000000000	0.00000000000000	0.00000000000000	0.00000000000000	0.00000000000000	
3.58164800000000	0.99582800000000	698.53205000000003	42.78349000000000	0.23634400000000	0.00000000000000	0.12743100000000	0.00000000000000	0.00000000000000	0.00000000000000	0.00000000000000	0.00000000000000	0.00000000000000	0.00000000000000	21.68092200000000	0.00000000000000	0.00000000000000	0.00000000000000	0.00000000000000	
